<svg width="29" height="29" viewBox="0 0 29 29" fill="none" xmlns="http://www.w3.org/2000/svg">
<path d="M19.8783 23.8333C21.4416 23.8449 22.9466 23.2616 24.1016 22.2116C27.9166 18.8749 25.8749 12.1783 20.8466 11.5483C19.0499 0.651606 3.33493 4.78161 7.0566 15.1533" stroke="#292D32" stroke-width="1.75" stroke-miterlimit="10" stroke-linecap="round" stroke-linejoin="round"/>
<path d="M8.99342 15.6316C8.37509 15.3166 7.68675 15.1533 6.99842 15.165C1.56175 15.55 1.57342 23.46 6.99842 23.845" stroke="#292D32" stroke-width="1.75" stroke-miterlimit="10" stroke-linecap="round" stroke-linejoin="round"/>
<path d="M18.9568 12.0383C19.5635 11.735 20.2168 11.5716 20.8935 11.56" stroke="#292D32" stroke-width="1.75" stroke-miterlimit="10" stroke-linecap="round" stroke-linejoin="round"/>
<path d="M11.2685 22.8533H12.4351V25.5716C12.4351 25.9683 12.9368 26.1666 13.1935 25.8633L16.0518 22.6083C16.4018 22.2116 16.2501 21.885 15.7251 21.885H14.5585V19.1666C14.5585 18.77 14.0568 18.5716 13.8001 18.875L10.9418 22.13C10.5918 22.5266 10.7435 22.8533 11.2685 22.8533Z" fill="#58AAFF" stroke="#58AAFF" stroke-width="1.75" stroke-miterlimit="10" stroke-linecap="round" stroke-linejoin="round"/>
</svg>
