<svg width="29" height="29" viewBox="0 0 29 29" fill="none" xmlns="http://www.w3.org/2000/svg">
<path d="M19.8783 23.8333C21.4416 23.8449 22.9466 23.2616 24.1016 22.2116C27.9166 18.8749 25.8749 12.1783 20.8466 11.5483C19.0499 0.651606 3.33493 4.78161 7.0566 15.1533" stroke="#292D32" stroke-width="1.75" stroke-miterlimit="10" stroke-linecap="round" stroke-linejoin="round"/>
<path d="M8.9933 15.6316C8.37496 15.3166 7.68663 15.1533 6.9983 15.165C1.56163 15.55 1.5733 23.46 6.9983 23.845" stroke="#292D32" stroke-width="1.75" stroke-miterlimit="10" stroke-linecap="round" stroke-linejoin="round"/>
<path d="M18.9567 12.0383C19.5633 11.735 20.2167 11.5716 20.8933 11.56" stroke="#292D32" stroke-width="1.75" stroke-miterlimit="10" stroke-linecap="round" stroke-linejoin="round"/>
<path d="M12.1317 23.8333L9.79834 26.1667" stroke="#58AAFF" stroke-width="1.75" stroke-miterlimit="10" stroke-linecap="round" stroke-linejoin="round"/>
<path d="M16.7983 23.8333L14.465 26.1667" stroke="#58AAFF" stroke-width="1.75" stroke-miterlimit="10" stroke-linecap="round" stroke-linejoin="round"/>
<path d="M16.7983 19.1667L14.465 21.5" stroke="#58AAFF" stroke-width="1.75" stroke-miterlimit="10" stroke-linecap="round" stroke-linejoin="round"/>
<path d="M12.1317 19.1667L9.79834 21.5" stroke="#58AAFF" stroke-width="1.75" stroke-miterlimit="10" stroke-linecap="round" stroke-linejoin="round"/>
</svg>
