<svg width="24" height="24" viewBox="0 0 24 24" fill="none" xmlns="http://www.w3.org/2000/svg">
<path d="M19.9999 7.39C20.0099 6.05 19.5099 4.76 18.6099 3.77C15.7499 0.500001 10.0099 2.25 9.46995 6.56C0.129949 8.1 3.66995 21.57 12.5599 18.38" stroke="white" stroke-width="1.5" stroke-miterlimit="10" stroke-linecap="round" stroke-linejoin="round"/>
<path d="M12.97 16.72C12.7 17.25 12.56 17.84 12.57 18.43C12.9 23.09 19.68 23.08 20.01 18.43" stroke="white" stroke-width="1.5" stroke-miterlimit="10" stroke-linecap="round" stroke-linejoin="round"/>
<path d="M9.88998 8.18C9.62998 7.66 9.48998 7.1 9.47998 6.52" stroke="white" stroke-width="1.5" stroke-miterlimit="10" stroke-linecap="round" stroke-linejoin="round"/>
<path d="M20 14.03L22 16.03" stroke="white" stroke-width="1.5" stroke-miterlimit="10" stroke-linecap="round" stroke-linejoin="round"/>
<path d="M20 10.03L22 12.03" stroke="white" stroke-width="1.5" stroke-miterlimit="10" stroke-linecap="round" stroke-linejoin="round"/>
<path d="M16 10.03L18 12.03" stroke="white" stroke-width="1.5" stroke-miterlimit="10" stroke-linecap="round" stroke-linejoin="round"/>
<path d="M16 14.03L18 16.03" stroke="white" stroke-width="1.5" stroke-miterlimit="10" stroke-linecap="round" stroke-linejoin="round"/>
</svg>
