<svg width="29" height="29" viewBox="0 0 29 29" fill="none" xmlns="http://www.w3.org/2000/svg">
<path d="M26.1316 10.4167C26.1316 11.7 25.5366 12.855 24.5916 13.6017C23.6933 12.5283 22.4333 11.77 20.8816 11.5717C20.6016 9.88001 19.9833 8.55001 19.1666 7.54668V7.53501C19.9016 6.78834 20.9283 6.33334 22.0483 6.33334C24.3 6.33334 26.1316 8.16501 26.1316 10.4167Z" fill="#FFCB45" stroke="#FFCB45" stroke-width="1.75" stroke-miterlimit="10" stroke-linecap="round" stroke-linejoin="round"/>
<path d="M24.1483 22.2934C22.9933 23.355 21.4766 23.9384 19.9016 23.9267H6.96331C1.51497 23.53 1.50331 15.5967 6.96331 15.2H7.02164C3.87164 6.40336 14.64 2.06336 19.1666 7.53503V7.54669C19.9833 8.55003 20.6016 9.88003 20.8816 11.5717C22.4333 11.77 23.6933 12.5284 24.5916 13.6017C26.6333 16.0167 26.8083 19.96 24.1483 22.2934Z" stroke="#292D32" stroke-width="1.75" stroke-miterlimit="10" stroke-linecap="round" stroke-linejoin="round"/>
<path d="M8.96994 15.6783C8.36327 15.375 7.69827 15.2116 7.02161 15.2" stroke="#292D32" stroke-width="1.75" stroke-miterlimit="10" stroke-linecap="round" stroke-linejoin="round"/>
<path d="M18.9917 12.0733C19.5984 11.77 20.2634 11.6067 20.94 11.595" stroke="#292D32" stroke-width="1.75" stroke-miterlimit="10" stroke-linecap="round" stroke-linejoin="round"/>
</svg>
