<svg width="29" height="29" viewBox="0 0 29 29" fill="none" xmlns="http://www.w3.org/2000/svg">
<path d="M14.6074 28.0742C6.99219 28.0742 0.662109 21.7441 0.662109 14.1289C0.662109 6.5 6.97852 0.183594 14.5938 0.183594C22.2227 0.183594 28.5527 6.5 28.5527 14.1289C28.5527 21.7441 22.2363 28.0742 14.6074 28.0742ZM14.6074 25.75C21.0605 25.75 26.2422 20.582 26.2285 14.1289C26.2148 7.67578 21.0469 2.50781 14.5938 2.50781C8.14062 2.50781 3 7.67578 3 14.1289C3 20.582 8.1543 25.75 14.6074 25.75ZM8.22266 16.125C7.11523 16.125 6.22656 15.2227 6.22656 14.1289C6.22656 13.0352 7.11523 12.1328 8.22266 12.1328C9.30273 12.1328 10.2051 13.0352 10.2051 14.1289C10.2051 15.2227 9.31641 16.125 8.22266 16.125ZM14.5938 16.125C13.5 16.125 12.5977 15.2227 12.5977 14.1289C12.5977 13.0352 13.5 12.1328 14.5938 12.1328C15.6875 12.1328 16.5898 13.0352 16.5898 14.1289C16.5898 15.2227 15.6875 16.125 14.5938 16.125ZM20.9785 16.125C19.8711 16.125 18.9824 15.2227 18.9824 14.1289C18.9824 13.0352 19.8711 12.1328 20.9785 12.1328C22.0723 12.1328 22.9609 13.0352 22.9609 14.1289C22.9609 15.2227 22.0723 16.125 20.9785 16.125Z" fill="white"/>
</svg>
