<svg width="16" height="15" viewBox="0 0 16 15" fill="none" xmlns="http://www.w3.org/2000/svg">
<path d="M8 11.4609C10.1876 11.4609 11.9609 9.68757 11.9609 7.5C11.9609 5.31243 10.1876 3.53906 8 3.53906C5.81243 3.53906 4.03906 5.31243 4.03906 7.5C4.03906 9.68757 5.81243 11.4609 8 11.4609Z" stroke="#FFCB45" stroke-width="1.4" stroke-linecap="round" stroke-linejoin="round"/>
<path d="M12.3509 11.8509L12.2717 11.7717M12.2717 3.22828L12.3509 3.14906L12.2717 3.22828ZM3.64906 11.8509L3.72828 11.7717L3.64906 11.8509ZM8 1.455V1.40625V1.455ZM8 13.5938V13.545V13.5938ZM1.955 7.5H1.90625H1.955ZM14.0938 7.5H14.045H14.0938ZM3.72828 3.22828L3.64906 3.14906L3.72828 3.22828Z" stroke="#FFCB45" stroke-width="1.8" stroke-linecap="round" stroke-linejoin="round"/>
</svg>
