<svg width="29" height="29" viewBox="0 0 29 29" fill="none" xmlns="http://www.w3.org/2000/svg">
<path d="M14.5 22.6667C19.0104 22.6667 22.6667 19.0103 22.6667 14.5C22.6667 9.98968 19.0104 6.33334 14.5 6.33334C9.98972 6.33334 6.33337 9.98968 6.33337 14.5C6.33337 19.0103 9.98972 22.6667 14.5 22.6667Z" fill="#FFD158"/>
<path d="M14.5 27.2867C13.8583 27.2867 13.3333 26.8083 13.3333 26.1667V26.0733C13.3333 25.4317 13.8583 24.9067 14.5 24.9067C15.1416 24.9067 15.6666 25.4317 15.6666 26.0733C15.6666 26.715 15.1416 27.2867 14.5 27.2867ZM22.83 23.9967C22.5266 23.9967 22.235 23.88 22.0016 23.6583L21.85 23.5067C21.395 23.0517 21.395 22.3167 21.85 21.8617C22.305 21.4067 23.04 21.4067 23.495 21.8617L23.6466 22.0133C24.1016 22.4683 24.1016 23.2033 23.6466 23.6583C23.425 23.88 23.1333 23.9967 22.83 23.9967ZM6.16996 23.9967C5.86663 23.9967 5.57496 23.88 5.34163 23.6583C4.88663 23.2033 4.88663 22.4683 5.34163 22.0133L5.49329 21.8617C5.94829 21.4067 6.68329 21.4067 7.13829 21.8617C7.59329 22.3167 7.59329 23.0517 7.13829 23.5067L6.98663 23.6583C6.76496 23.88 6.46163 23.9967 6.16996 23.9967ZM26.1666 15.6667H26.0733C25.4316 15.6667 24.9066 15.1417 24.9066 14.5C24.9066 13.8583 25.4316 13.3333 26.0733 13.3333C26.715 13.3333 27.2866 13.8583 27.2866 14.5C27.2866 15.1417 26.8083 15.6667 26.1666 15.6667ZM2.92663 15.6667H2.83329C2.19163 15.6667 1.66663 15.1417 1.66663 14.5C1.66663 13.8583 2.19163 13.3333 2.83329 13.3333C3.47496 13.3333 4.04663 13.8583 4.04663 14.5C4.04663 15.1417 3.56829 15.6667 2.92663 15.6667ZM22.6783 7.48832C22.375 7.48832 22.0833 7.37166 21.85 7.14999C21.395 6.69499 21.395 5.95999 21.85 5.50499L22.0016 5.35332C22.4566 4.89832 23.1916 4.89832 23.6466 5.35332C24.1016 5.80832 24.1016 6.54332 23.6466 6.99832L23.495 7.14999C23.2733 7.37166 22.9816 7.48832 22.6783 7.48832ZM6.32163 7.48832C6.01829 7.48832 5.72663 7.37166 5.49329 7.14999L5.34163 6.98666C4.88663 6.53166 4.88663 5.79666 5.34163 5.34166C5.79663 4.88666 6.53163 4.88666 6.98663 5.34166L7.13829 5.49332C7.59329 5.94832 7.59329 6.68332 7.13829 7.13832C6.91663 7.37166 6.61329 7.48832 6.32163 7.48832ZM14.5 4.04666C13.8583 4.04666 13.3333 3.56832 13.3333 2.92666V2.83332C13.3333 2.19166 13.8583 1.66666 14.5 1.66666C15.1416 1.66666 15.6666 2.19166 15.6666 2.83332C15.6666 3.47499 15.1416 4.04666 14.5 4.04666Z" fill="#FFD158"/>
</svg>
