<svg width="16" height="15" viewBox="0 0 16 15" fill="none" xmlns="http://www.w3.org/2000/svg">
<path d="M1.95837 9.3125H11.9271C13.0932 9.3125 14.0417 10.261 14.0417 11.4271C14.0417 12.5931 13.0932 13.5417 11.9271 13.5417C10.7611 13.5417 9.81254 12.5931 9.81254 11.4271V11.125" stroke="white" stroke-width="1.3" stroke-miterlimit="10" stroke-linecap="round" stroke-linejoin="round"/>
<path d="M1.95837 7.5H11.9271C13.0871 7.5 14.0417 6.55146 14.0417 5.38542C14.0417 4.22542 13.0871 3.27083 11.9271 3.27083C10.7671 3.27083 9.81254 4.21937 9.81254 5.38542V5.6875" stroke="white" stroke-width="1.3" stroke-miterlimit="10" stroke-linecap="round" stroke-linejoin="round"/>
<path d="M1.95837 5.6875H6.37483C7.27504 5.6875 8.00004 4.95646 8.00004 4.06229C8.00004 3.16208 7.269 2.43708 6.37483 2.43708C5.47462 2.43708 4.74962 3.16812 4.74962 4.06229V4.29187" stroke="white" stroke-width="1.3" stroke-miterlimit="10" stroke-linecap="round" stroke-linejoin="round"/>
</svg>
